<!--?xml version="1.0" standalone="no"?-->
<svg id="blob-2" viewBox="0 0 100 100" xmlns="http://www.w3.org/2000/svg" version="1.1">
  <defs> 
    <linearGradient id="sw-gradient" x1="0" x2="1" y1="1" y2="0">
      <stop id="stop1" stop-color="rgba(248, 117, 55, 1)" offset="0%"></stop>
      <stop id="stop2" stop-color="rgba(251, 168, 31, 1)" offset="100%"></stop>
    </linearGradient>
  </defs>
<path fill="url(#sw-gradient)" d="M15.7,-21C21.1,-17.7,26.6,-14.1,26.7,-9.7C26.8,-5.2,21.4,0,17.9,4.3C14.4,8.6,12.7,11.9,10.1,19C7.4,26,3.7,36.7,-1.3,38.5C-6.4,40.4,-12.8,33.4,-19.3,27.6C-25.8,21.8,-32.5,17.3,-34.9,11.1C-37.2,4.9,-35.2,-3,-31.3,-8.6C-27.3,-14.2,-21.3,-17.6,-15.7,-20.8C-10.2,-24,-5.1,-27,0,-27C5.2,-27.1,10.4,-24.2,15.7,-21Z" width="100%" height="100%" transform="translate(50 50)" stroke-width="0" style="transition: all 0.3s ease 0s;"></path>
</svg>