<!--?xml version="1.0" standalone="no"?-->
<svg id="blob-1" viewBox="0 0 100 100" xmlns="http://www.w3.org/2000/svg" version="1.1">
  <defs> 
    <linearGradient id="sw-gradient" x1="0" x2="1" y1="1" y2="0">
      <stop id="stop1" stop-color="rgba(248, 117, 55, 1)" offset="0%"></stop>
      <stop id="stop2" stop-color="rgba(251, 168, 31, 1)" offset="100%"></stop>
    </linearGradient>
  </defs>
  <path fill="url(#sw-gradient)" d="M16.3,-27.4C19.4,-20.2,19,-13.1,22.9,-6.2C26.8,0.6,35,7.3,35.1,12.8C35.3,18.3,27.4,22.6,20.2,24.5C13,26.5,6.5,26.1,-1,27.4C-8.5,28.8,-16.9,31.9,-23.8,29.8C-30.6,27.7,-35.8,20.5,-37.1,12.9C-38.5,5.2,-36,-2.8,-33.8,-11.4C-31.6,-20,-29.7,-29.1,-24.1,-35.6C-18.5,-42,-9.3,-45.8,-1.3,-43.9C6.6,-42.1,13.2,-34.6,16.3,-27.4Z" width="100%" height="100%" transform="translate(50 50)" stroke-width="0" style="transition: all 0.3s ease 0s;"></path>
</svg>