<!--?xml version="1.0" standalone="no"?-->
<svg id="sw-js-blob-svg" viewBox="0 0 100 100" xmlns="http://www.w3.org/2000/svg" version="1.1">
  <defs> 
    <linearGradient id="sw-gradient" x1="0" x2="1" y1="1" y2="0">
      <stop id="stop1" stop-color="rgba(248, 117, 55, 1)" offset="0%"></stop>
      <stop id="stop2" stop-color="rgba(251, 168, 31, 1)" offset="100%"></stop>
    </linearGradient>
  </defs>
  <path fill="url(#sw-gradient)" d="M14.3,-16.4C22,-14.1,34.1,-14.6,36.1,-11.1C38.1,-7.6,30,-0.3,26.1,7.5C22.3,15.3,22.7,23.5,19,26.5C15.4,29.5,7.7,27.4,-0.3,27.7C-8.3,28.1,-16.5,31.1,-20.8,28.3C-25,25.5,-25.2,16.9,-24.1,10.2C-23,3.5,-20.6,-1.2,-20.5,-8.2C-20.4,-15.3,-22.5,-24.6,-19.5,-28.5C-16.5,-32.3,-8.2,-30.6,-2.5,-27.2C3.3,-23.9,6.6,-18.8,14.3,-16.4Z" width="100%" height="100%" transform="translate(50 50)" stroke-width="0" style="transition: all 0.3s ease 0s;"></path>
</svg>